<svg height="100%" version="1.1" width="100%" xmlns="http://www.w3.org/2000/svg" preserveAspectRatio="xMidYMid meet" viewBox="0 0 600 442" xmlns:xlink="http://www.w3.org/1999/xlink"><desc>Created with Snap</desc><defs/><g id="root" contentwidth="200" contentheight="90.99352234932806">
          <rect class="background" height="2000%" width="2000%" y="-1000%" x="-1000%" style="" fill="none"/>
          <rect class="watermarklayer" height="100%" width="100%" y="0" x="0" style="" fill="none"/>
          <g class="content" id="content" transform="matrix(1.2269,0,0,1.2269,193.588,253.8456)">
            <g class="icon">
            </g>
            <g id="icon_name_and_slogan_gap">
            </g>
            <g class="name_and_slogan" id="name_and_slogan_id">
              <g class="name"><g id="nameDefaultGroup"><path d="M5.8500000000000005 -56.68000000000001Q5.8500000000000005 -61.36000000000001 6.24 -62.400000000000006Q6.63 -63.31000000000001 8.84 -63.44Q10.920000000000002 -63.57 11.83 -63.050000000000004Q12.740000000000002 -62.53 12.61 -57.2Q12.48 -51.87 13.13 -38.35Q23.400000000000002 -50.44 28.730000000000004 -56.550000000000004Q34.06 -62.53 34.580000000000005 -63.31000000000001Q35.1 -63.96000000000001 36.4 -63.830000000000005Q37.7 -63.57 39 -62.400000000000006Q40.17 -61.1 40.04 -60.19Q39.910000000000004 -59.28 35.230000000000004 -53.43000000000001Q30.680000000000003 -47.580000000000005 18.98 -34.71Q29.25 -23.01 35.49 -15.73Q41.730000000000004 -8.450000000000001 42.64 -7.15Q43.550000000000004 -5.8500000000000005 42.64 -4.42Q41.730000000000004 -2.8600000000000003 40.56 -2.6Q39.519999999999996 -2.21 38.35 -2.6Q37.31 -2.8600000000000003 31.07 -9.49Q24.830000000000002 -16.12 13.13 -30.680000000000003Q12.48 -17.94 12.48 -11.57Q12.48 -5.07 12.48 -4.03Q12.48 -2.8600000000000003 10.4 -2.6Q8.450000000000001 -2.21 6.760000000000001 -2.7300000000000004Q5.07 -3.25 5.33 -4.8100000000000005Q5.460000000000001 -6.24 5.33 -12.090000000000002Q5.07 -17.94 5.460000000000001 -26.650000000000002Q5.8500000000000005 -35.49 5.8500000000000005 -43.68000000000001Q5.8500000000000005 -51.87 5.8500000000000005 -56.68000000000001" style="" fill="#3e5efa" id="name-lt-0"/><path d="M48.295 -25.9Q51.295 -30.4 55.894999999999996 -31.1Q60.495 -31.8 66.195 -30.7Q66.195 -32.1 67.295 -32.2Q68.395 -32.3 69.295 -32.1Q70.095 -31.8 70.195 -31.2Q70.395 -30.7 70.495 -24.2Q70.695 -17.7 70.695 -12.4Q70.695 -7 70.695 -4.8Q70.695 -2.5 70.495 -1.7Q70.395 -0.8 69.295 -0.6Q68.095 -0.3 67.095 -0.4Q66.195 -0.6 66.195 -1.1Q66.195 -1.7 65.895 -4.2Q62.195 -2.2 57.995 -2.1Q53.795 -2 49.995 -4.8Q46.195 -7.6 45.795 -14.5Q45.295 -21.4 48.295 -25.9zM65.895 -26.2Q60.295 -27.6 57.195 -26.7Q54.095 -25.9 52.195 -22.9Q50.394999999999996 -20 50.695 -15.5Q50.995 -11 53.495 -8.9Q55.995 -6.8 58.995 -6.8Q61.894999999999996 -6.8 65.895 -8.4Q65.895 -17.2 65.895 -26.2zM49.695 -34Q48.394999999999996 -33.2 48.295 -32.8Q48.195 -32.3 47.495 -33.5Q46.795 -34.6 46.995 -36.4Q47.295 -38.2 47.995 -38.7Q48.695 -39.1 50.394999999999996 -38.4Q52.095 -37.7 52.695 -36.8Q53.195 -36 53.394999999999996 -35.7Q53.495 -35.4 52.195 -35.2Q50.995 -34.9 49.695 -34zM63.295 -40.1Q63.894999999999996 -41.3 64.595 -42.2Q65.295 -43 66.395 -42.8Q67.595 -42.5 68.595 -40.9Q69.495 -39.4 69.495 -38.2Q69.495 -37.1 68.095 -37.4Q66.695 -37.7 64.995 -37.3Q63.295 -36.8 63.095 -37Q62.795 -37.1 62.795 -38Q62.795 -38.8 63.295 -40.1" style="" fill="#e91e63" id="name-lt-1"/><path d="M76.195 -22.1Q73.79499999999999 -27.8 73.49499999999999 -28.7Q73.195 -29.5 74.095 -30.2Q74.895 -30.9 75.79499999999999 -30.9Q76.595 -30.9 77.29499999999999 -30.2Q77.99499999999999 -29.5 80.49499999999999 -24.6Q83.095 -19.7 87.895 -11.5Q92.095 -21.4 93.79499999999999 -25.6Q95.49499999999999 -29.8 95.895 -30.5Q96.29499999999999 -31.2 97.095 -31.2Q97.99499999999999 -31.2 98.79499999999999 -30.8Q99.695 -30.4 99.695 -29.5Q99.695 -28.7 98.095 -24Q96.595 -19.4 93.895 -12.4Q91.195 -5.3 88.99499999999999 -0.3Q86.695 4.8 84.49499999999999 6.8Q82.195 8.7 79.99499999999999 9.6Q77.695 10.4 76.595 10.3Q75.49499999999999 10.1 74.895 9.3Q74.395 8.4 74.395 7.9Q74.395 7.3 74.895 6.9Q75.49499999999999 6.5 76.99499999999999 5.9Q78.595 5.3 80.49499999999999 3Q82.49499999999999 0.6 85.29499999999999 -5.1Q78.595 -16.3 76.195 -22.1zM88.99499999999999 -40.2Q89.49499999999999 -43.9 91.395 -45.1Q93.195 -46.4 94.99499999999999 -44.6Q96.895 -42.8 96.99499999999999 -39.1Q97.095 -35.4 95.49499999999999 -31.8Q90.395 -31.2 87.195 -32.3Q83.895 -33.5 83.095 -36Q82.195 -38.5 83.895 -39.9Q85.595 -41.3 88.99499999999999 -40.2zM91.195 -37.7Q89.29499999999999 -39.1 87.695 -39.1Q86.195 -39.1 85.49499999999999 -38.2Q84.79499999999999 -37.4 86.195 -35.7Q87.595 -34 89.79499999999999 -33.8Q92.095 -33.5 94.29499999999999 -34Q94.895 -35.4 94.99499999999999 -37.3Q95.195 -39.1 94.595 -41.3Q93.99499999999999 -43.6 92.895 -43.7Q91.79499999999999 -43.9 91.195 -42.6Q90.695 -41.3 91.195 -37.7" style="" fill="#025c05" id="name-lt-2"/><path d="M103.49499999999998 -38.4Q103.59499999999998 -43.3 103.79499999999997 -43.9Q103.89499999999998 -44.4 104.89499999999998 -44.7Q105.89499999999998 -45 106.99499999999998 -44.7Q108.09499999999998 -44.4 108.29499999999997 -43.6Q108.39499999999998 -42.8 108.39499999999998 -38.1Q108.39499999999998 -33.5 108.59499999999998 -24.6Q108.69499999999998 -15.8 108.59499999999998 -10.1Q108.39499999999998 -4.5 108.29499999999997 -3.5Q108.09499999999998 -2.5 107.29499999999997 -2.2Q106.49499999999998 -2 104.99499999999998 -2.1Q103.59499999999998 -2.2 103.49499999999998 -3.4Q103.39499999999998 -4.5 103.19499999999998 -9.7Q103.09499999999998 -14.9 103.19499999999998 -24.2Q103.39499999999998 -33.5 103.49499999999998 -38.4" style="" fill="#860ec6" id="name-lt-3"/><path d="M120.64499999999998 -30.8Q125.24499999999998 -32.9 130.045 -30.5Q134.84499999999997 -28.1 136.34499999999997 -24Q137.84499999999997 -20 138.045 -17.9Q138.14499999999998 -15.8 137.34499999999997 -15Q136.445 -14.3 130.84499999999997 -14.3Q125.24499999999998 -14.3 117.34499999999998 -14.3Q117.94499999999998 -11 120.74499999999998 -8.9Q123.54499999999999 -6.8 127.44499999999998 -7Q131.445 -7.3 132.64499999999998 -7.9Q133.945 -8.4 134.64499999999998 -7.6Q135.34499999999997 -6.8 135.545 -5.6Q135.64499999999998 -4.5 135.24499999999998 -3.9Q134.84499999999997 -3.4 132.545 -2.7Q130.34499999999997 -2 125.54499999999999 -1.8Q120.74499999999998 -1.7 116.84499999999998 -5.1Q112.84499999999998 -8.4 112.04499999999999 -12.4Q111.14499999999998 -16.3 111.64499999999998 -19.3Q112.04499999999999 -22.2 113.94499999999998 -25.5Q115.94499999999998 -28.7 120.64499999999998 -30.8zM117.04499999999999 -19.1Q124.64499999999998 -19.1 132.24499999999998 -19.1Q131.445 -23.6 128.84499999999997 -25.5Q126.34499999999998 -27.3 122.74499999999998 -26.4Q119.04499999999999 -25.6 117.04499999999999 -19.1zM118.24499999999998 -30.9Q117.94499999999998 -28.4 117.74499999999998 -27.3Q117.64499999999998 -26.2 117.04499999999999 -26.2Q116.54499999999999 -26.2 116.54499999999999 -26.9Q116.54499999999999 -27.6 116.94499999999998 -30.7Q117.34499999999998 -33.8 117.64499999999998 -38.1Q117.94499999999998 -42.5 118.34499999999998 -43.9Q118.74499999999998 -45.3 119.64499999999998 -44.3Q120.44499999999998 -43.3 121.34499999999998 -41.9Q122.14499999999998 -40.5 124.14499999999998 -38.1Q126.04499999999999 -35.7 128.84499999999997 -34Q131.74499999999998 -32.3 132.945 -31.6Q134.24499999999998 -30.9 134.14499999999998 -30.5Q133.945 -30.1 133.64499999999998 -30.1Q133.445 -30.1 132.24499999999998 -30.8Q131.14499999999998 -31.5 128.84499999999997 -32.8Q126.64499999999998 -34 124.44499999999998 -36.1Q122.14499999999998 -38.2 121.04499999999999 -40.2Q119.84499999999998 -42.2 119.64499999999998 -41.8Q119.34499999999998 -41.3 119.14499999999998 -40.5Q119.04499999999999 -39.7 118.74499999999998 -36.6Q118.44499999999998 -33.5 118.24499999999998 -30.9zM128.445 -39Q127.44499999999998 -40.5 127.24499999999998 -40.9Q126.94499999999998 -41.3 127.64499999999998 -41.6Q128.34499999999997 -41.9 128.34499999999997 -41.5Q128.34499999999997 -41.1 129.64499999999998 -39.4Q130.84499999999997 -37.7 133.545 -35.9Q136.24499999999998 -34 137.64499999999998 -32.9Q139.045 -31.8 139.34499999999997 -31.2Q139.545 -30.7 139.14499999999998 -30.7Q138.74499999999998 -30.7 136.74499999999998 -31.8Q134.84499999999997 -32.9 133.24499999999998 -34.6Q131.74499999999998 -36.3 130.545 -36.8Q129.445 -37.4 128.445 -39" style="" fill="#f0913d" id="name-lt-4"/><path d="M143.31166666666667 -39Q143.31166666666667 -42.8 143.61166666666665 -43.9Q143.91166666666666 -45 144.91166666666666 -45Q145.91166666666666 -45 146.91166666666666 -44.9Q147.81166666666667 -44.7 148.01166666666666 -43.9Q148.11166666666665 -43 148.01166666666666 -39.1Q147.81166666666667 -35.2 148.11166666666665 -28.1Q152.31166666666667 -31.2 156.31166666666667 -30.8Q160.21166666666667 -30.4 162.91166666666666 -27.7Q165.61166666666665 -25 165.61166666666665 -18.4Q165.61166666666665 -11.8 165.41166666666666 -8.3Q165.31166666666667 -4.8 165.31166666666667 -3.8Q165.31166666666667 -2.8 163.91166666666666 -2.5Q162.51166666666666 -2.2 161.61166666666665 -2.5Q160.81166666666667 -2.8 160.81166666666667 -3.5Q160.81166666666667 -4.2 160.61166666666665 -7.7Q160.51166666666666 -11.2 160.51166666666666 -16.5Q160.51166666666666 -21.7 159.21166666666667 -23.6Q158.01166666666666 -25.6 155.41166666666666 -25.9Q152.91166666666666 -26.2 150.51166666666666 -24.9Q148.11166666666665 -23.6 148.11166666666665 -22.5Q148.11166666666665 -21.4 148.11166666666665 -17Q148.11166666666665 -12.7 148.01166666666666 -8.9Q147.81166666666667 -5.1 148.01166666666666 -4.1Q148.11166666666665 -3.1 147.01166666666666 -2.5Q145.91166666666666 -2 144.51166666666666 -2.1Q143.11166666666665 -2.2 142.91166666666666 -3.1Q142.81166666666667 -3.9 142.91166666666666 -8.2Q143.11166666666665 -12.4 142.91166666666666 -18.7Q142.81166666666667 -25 143.11166666666665 -30.1Q143.31166666666667 -35.2 143.31166666666667 -39zM162.71166666666667 -40.5Q165.01166666666666 -41.6 166.71166666666667 -41.1Q168.41166666666666 -40.5 168.21166666666667 -38.4Q168.11166666666665 -36.3 165.31166666666667 -34.5Q162.51166666666666 -32.6 158.81166666666667 -32.9Q156.31166666666667 -38 156.41166666666666 -40.4Q156.61166666666665 -42.8 158.01166666666666 -43.7Q159.41166666666666 -44.7 160.91166666666666 -44.2Q162.51166666666666 -43.6 162.71166666666667 -40.5zM161.61166666666665 -38.2Q161.91166666666666 -39.4 161.81166666666667 -41.1Q161.61166666666665 -42.8 160.21166666666667 -42.8Q158.81166666666667 -42.8 158.11166666666665 -40.9Q157.41166666666666 -39.1 158.41166666666666 -37.3Q159.41166666666666 -35.4 159.51166666666666 -35Q159.61166666666665 -34.6 159.61166666666665 -34.5Q159.61166666666665 -34.3 161.21166666666667 -34.5Q162.71166666666667 -34.6 164.41166666666666 -35.7Q166.11166666666665 -36.8 166.81166666666667 -38Q167.51166666666666 -39.1 166.01166666666666 -39.8Q164.41166666666666 -40.5 161.61166666666665 -38.2" style="" fill="#3e5efa" id="name-lt-5"/></g></g>
              <g class="slogan"><g id="sloganDefaultGroup"/></g>
            </g>
            <g class="border">
            </g>
          </g>
          <defs id="defs">
            <mask xmlns="http://www.w3.org/2000/svg" id="mask">
                <rect id="showAll" fill="white" x="0" y="0" width="0" height="0"/>
                <rect id="hideNameBg" fill="black" x="0" y="0" width="0" height="0" stroke-width="2" stroke="black"/>
                <rect id="hideSloganBg" fill="black" x="0" y="0" width="0" height="0" stroke-width="2" stroke="black"/>
            </mask>
          
          </defs>
        </g>
        </svg>